# xmcd
#
# Track frame offsets: 
#        300
#        23108
#        37059
#        50182
#        64997
#        81768
#        93282
#        110666
#        130244
#
# Disc length: 1916 seconds
#
# Revision: 1
# Processed by: cddbd v1.5.2PL0 Copyright (c) Steve Scherf et al.
# Submitted via: ExactAudioCopy v1.0b1
#
DISCID=7f077809
DTITLE=T-Bone Walker - Funky Town
DYEAR=1969
DGENRE=
TTITLE0=Goin' to funky town
TTITLE1=Party girl
TTITLE2=Why my baby (keep on bothering me)
TTITLE3=Jealous woman
TTITLE4=Going to build me a playhouse
TTITLE5=long skirt baby blues
TTITLE6=struggling blues
TTITLE7=I'm in an awful mood
TTITLE8=I wish my baby (would come home at night)
EXTD=
EXTT0=
EXTT1=
EXTT2=
EXTT3=
EXTT4=
EXTT5=
EXTT6=
EXTT7=
EXTT8=
PLAYORDER=
